<svg width="601" height="601" viewBox="0 0 601 601" fill="none" xmlns="http://www.w3.org/2000/svg">
<g clip-path="url(#clip0_14_2)">
<rect width="601" height="601" fill="#96ECFF"/>
<path d="M151.492 149.883L239.983 465.336C240.105 465.774 240.509 466.074 240.963 466.066L375.364 463.637C375.834 463.629 376.235 463.294 376.327 462.833L439.852 144.634C439.977 144.008 439.492 143.427 438.853 143.438L152.437 148.613C151.782 148.625 151.315 149.252 151.492 149.883Z" fill="#E9E9E9" fill-opacity="0.1" stroke="black" stroke-opacity="0.1" stroke-width="6"/>
<path d="M165.294 147.232L240.911 464.232C241.018 464.682 241.421 465 241.884 465H364.509C364.986 465 365.397 464.663 365.49 464.196L428.761 147.196C428.885 146.577 428.412 146 427.781 146H166.267C165.62 146 165.144 146.604 165.294 147.232Z" fill="#E9E9E9" fill-opacity="0.75" stroke="black" stroke-width="6"/>
<path d="M195.156 530.412L241.729 466.412C241.917 466.153 242.217 466 242.537 466H363.923C364.238 466 364.534 466.148 364.723 466.399L412.798 530.399C413.293 531.059 412.823 532 411.998 532H195.964C195.147 532 194.675 531.073 195.156 530.412Z" fill="#4B4B4B" stroke="black" stroke-width="6"/>
<path d="M266.76 296.467C244.134 283.634 218.146 296.331 207.48 304.621C207.179 304.855 207.052 305.235 207.133 305.606L241.752 463.215C241.853 463.673 242.259 464 242.729 464H364.487C364.972 464 365.387 463.652 365.472 463.174L392.45 310.651C392.476 310.505 392.537 310.367 392.611 310.238C393.746 308.266 393.032 303.068 381.624 296.467C369.827 289.642 350.838 293.623 342.818 296.467C327.038 301.897 289.733 309.498 266.76 296.467Z" fill="#F47171" stroke="black" stroke-width="4"/>
<path d="M314.348 404.5C317.069 376.9 254.583 369.333 223 369L244.865 462H361.966L378 381.5C355.649 400.667 311.627 432.1 314.348 404.5Z" fill="#FF6666"/>
<path d="M225.535 371.042C241.132 371.383 263.006 373.414 280.999 378.451C290.514 381.115 298.772 384.574 304.444 388.941C310.071 393.273 312.948 398.313 312.358 404.304C311.998 407.948 312.369 410.953 313.644 413.207C314.98 415.568 317.147 416.826 319.696 417.222C322.156 417.603 324.991 417.194 327.961 416.325C330.957 415.448 334.244 414.056 337.674 412.322C349.667 406.26 364.014 395.69 374.926 386.696L360.325 460H246.45L225.535 371.042Z" stroke="#FB5C5C" stroke-opacity="0.25" stroke-width="4"/>
<circle cx="264.5" cy="499.5" r="11.5" fill="#BD3C3C"/>
<g filter="url(#filter0_i_14_2)">
<circle cx="342.98" cy="498.98" r="13.2292" transform="rotate(91.3573 342.98 498.98)" fill="#79E376"/>
</g>
<circle cx="342.98" cy="498.98" r="11.7292" transform="rotate(91.3573 342.98 498.98)" stroke="#71CA8A" stroke-width="3"/>
<path d="M393.992 97.7755L384.025 103.147L381.014 97.6852L389.382 93.1759C390.856 92.3812 391.964 91.5437 392.705 90.6631C393.436 89.7648 393.836 88.827 393.905 87.8496C393.983 86.8449 393.734 85.8096 393.16 84.7436C392.509 83.5354 391.751 82.6827 390.887 82.1854C390.041 81.6785 389.047 81.5148 387.906 81.6943C386.782 81.8641 385.474 82.3511 383.982 83.1554L378.439 86.1424L395.973 118.683L387.978 122.991L367.069 84.1879L380.607 76.8925C382.864 75.6766 384.995 74.8032 387.001 74.2722C389.026 73.7316 390.894 73.5615 392.607 73.7619C394.32 73.9623 395.864 74.5517 397.239 75.5299C398.605 76.4905 399.776 77.8768 400.753 79.689C401.615 81.2881 402.045 82.959 402.044 84.7018C402.061 86.4351 401.527 88.1446 400.44 89.8303C399.372 91.5065 397.627 93.0544 395.205 94.474L393.992 97.7755ZM402.823 114.992L391.017 121.354L390.774 113.437L399.462 108.756C400.866 107.999 401.892 107.16 402.541 106.237C403.18 105.296 403.503 104.32 403.508 103.309C403.513 102.297 403.243 101.285 402.697 100.272C402.084 99.1351 401.358 98.2543 400.517 97.6299C399.694 96.9959 398.745 96.6818 397.67 96.6876C396.586 96.6757 395.36 97.0383 393.992 97.7755L386.29 101.926L383.385 96.4071L392.98 91.2372L395.982 92.4049C398.325 91.0961 400.452 90.4892 402.36 90.5842C404.276 90.652 405.932 91.1928 407.326 92.2066C408.739 93.2108 409.866 94.4947 410.709 96.0582C412.049 98.5455 412.637 100.934 412.472 103.224C412.298 105.496 411.392 107.623 409.755 109.605C408.136 111.578 405.825 113.374 402.823 114.992ZM451.906 80.4954L455.266 86.7316L427.763 101.552L424.403 95.316L451.906 80.4954ZM436.355 52.5947L431.308 99.6422L425.684 102.672L423.214 98.0885L428.52 51.0737L433.957 48.1441L436.355 52.5947ZM431.212 49.6233L434.587 55.8861L408.176 70.1179L404.801 63.855L431.212 49.6233ZM489.425 60.2774L492.786 66.5136L465.283 81.3342L461.922 75.098L489.425 60.2774ZM473.875 32.3767L468.827 79.4242L463.204 82.4543L460.734 77.8705L466.04 30.8557L471.476 27.9261L473.875 32.3767ZM468.731 29.4053L472.106 35.6681L445.696 49.8999L442.321 43.637L468.731 29.4053ZM526.945 40.0594L530.305 46.2956L502.802 61.1162L499.442 54.88L526.945 40.0594ZM511.394 12.1587L506.347 59.2062L500.723 62.2363L498.253 57.6525L503.559 10.6377L508.996 7.70809L511.394 12.1587ZM506.251 9.18727L509.626 15.4501L483.215 29.6819L479.84 23.419L506.251 9.18727ZM564.464 19.8414L567.825 26.0776L540.321 40.8982L536.961 34.662L564.464 19.8414ZM548.914 -8.0593L543.866 38.9882L538.243 42.0183L535.773 37.4345L541.079 -9.58026L546.515 -12.5099L548.914 -8.0593ZM543.77 -11.0307L547.145 -4.76789L520.735 9.46387L517.36 3.20103L543.77 -11.0307ZM601.984 -0.376567L605.344 5.85962L577.841 20.6802L574.48 14.444L601.984 -0.376567ZM586.433 -28.2773L581.385 18.7702L575.762 21.8003L573.292 17.2165L578.598 -29.7983L584.035 -32.7279L586.433 -28.2773ZM581.29 -31.2487L584.665 -24.9859L558.254 -10.7541L554.879 -17.017L581.29 -31.2487Z" fill="black" fill-opacity="0.25"/>
</g>
<defs>
<filter id="filter0_i_14_2" x="329.751" y="485.75" width="26.4586" height="26.4586" filterUnits="userSpaceOnUse" color-interpolation-filters="sRGB">
<feFlood flood-opacity="0" result="BackgroundImageFix"/>
<feBlend mode="normal" in="SourceGraphic" in2="BackgroundImageFix" result="shape"/>
<feColorMatrix in="SourceAlpha" type="matrix" values="0 0 0 0 0 0 0 0 0 0 0 0 0 0 0 0 0 0 127 0" result="hardAlpha"/>
<feOffset dx="-12" dy="32"/>
<feGaussianBlur stdDeviation="2"/>
<feComposite in2="hardAlpha" operator="arithmetic" k2="-1" k3="1"/>
<feColorMatrix type="matrix" values="0 0 0 0 0.651267 0 0 0 0 0.970833 0 0 0 0 0.740746 0 0 0 0.25 0"/>
<feBlend mode="normal" in2="shape" result="effect1_innerShadow_14_2"/>
</filter>
<clipPath id="clip0_14_2">
<rect width="601" height="601" fill="white"/>
</clipPath>
</defs>
</svg>
