<svg width="500" height="500" viewBox="0 0 500 500" fill="none" xmlns="http://www.w3.org/2000/svg">
<g clip-path="url(#clip0_9_4)">
<rect width="500" height="500" fill="#FFC7C7"/>
<path d="M144.5 107C144.5 106.172 145.172 105.5 146 105.5H354C354.828 105.5 355.5 106.172 355.5 107V392C355.5 392.828 354.828 393.5 354 393.5H146C145.172 393.5 144.5 392.828 144.5 392V107Z" fill="#D9D9D9" stroke="#CCCCCC" stroke-width="3"/>
<circle cx="250" cy="174" r="24" fill="#686868"/>
<path d="M301 265C260.104 158.145 213.293 220.477 195 265H239.355H301Z" fill="#686868"/>
<line x1="171" y1="289.5" x2="325" y2="289.5" stroke="#959393" stroke-width="3"/>
<line x1="171" y1="315.5" x2="325" y2="315.5" stroke="#959393" stroke-width="3"/>
<line x1="171" y1="341.5" x2="325" y2="341.5" stroke="#959393" stroke-width="3"/>
<line x1="171" y1="367.5" x2="325" y2="367.5" stroke="#959393" stroke-width="3"/>
<mask id="path-8-inside-1_9_4" fill="white">
<rect x="176" y="119" width="149" height="146" rx="1"/>
</mask>
<rect x="176" y="119" width="149" height="146" rx="1" stroke="black" stroke-width="4" mask="url(#path-8-inside-1_9_4)"/>
<path d="M93.7762 76.0685L-15.2238 30.169C-16.5421 29.6139 -18 30.5819 -18 32.0123V301.58C-18 302.361 -17.5463 303.07 -16.8379 303.396L92.1621 353.691C93.4873 354.302 95 353.334 95 351.875V77.9117C95 77.1071 94.5178 76.3808 93.7762 76.0685Z" fill="#B5B5B5" stroke="#686868" stroke-width="3"/>
<path d="M531.244 26.9786L397.244 61.8872C395.922 62.2315 395 63.4248 395 64.7903V354.002C395 356.001 396.919 357.441 398.839 356.882L532.839 317.867C534.119 317.494 535 316.32 535 314.986V29.8817C535 27.9177 533.144 26.4835 531.244 26.9786Z" fill="#B5B5B5" stroke="#686868" stroke-width="3"/>
</g>
<defs>
<clipPath id="clip0_9_4">
<rect width="500" height="500" fill="white"/>
</clipPath>
</defs>
</svg>
