<svg width="1920" height="50" viewBox="0 0 1920 50" fill="none" xmlns="http://www.w3.org/2000/svg">
<g clip-path="url(#clip0_12_2)">
<mask id="path-1-inside-1_12_2" fill="white">
<path d="M1920 0H0V50H1920V0Z"/>
</mask>
<path d="M1920 0H0V50H1920V0Z" fill="#FFEA2E"/>
<line y1="-7.5" x2="87" y2="-7.5" transform="matrix(-0.656524 0.754305 0.754305 0.656524 1890 -3)" stroke="black" stroke-width="15"/>
<line y1="-7.5" x2="87" y2="-7.5" transform="matrix(-0.656524 0.754305 0.754305 0.656524 1939 6)" stroke="black" stroke-width="15"/>
<line y1="-7.5" x2="87" y2="-7.5" transform="matrix(-0.656524 0.754305 0.754305 0.656524 1832 -3)" stroke="black" stroke-width="15"/>
<line y1="-7.5" x2="87" y2="-7.5" transform="matrix(-0.656524 0.754305 0.754305 0.656524 1774 -3)" stroke="black" stroke-width="15"/>
<line y1="-7.5" x2="87" y2="-7.5" transform="matrix(-0.656524 0.754305 0.754305 0.656524 1716 -3)" stroke="black" stroke-width="15"/>
<line y1="-7.5" x2="87" y2="-7.5" transform="matrix(-0.656524 0.754305 0.754305 0.656524 1658 -3)" stroke="black" stroke-width="15"/>
<line y1="-7.5" x2="87" y2="-7.5" transform="matrix(-0.656524 0.754305 0.754305 0.656524 1600 -3)" stroke="black" stroke-width="15"/>
<line y1="-7.5" x2="87" y2="-7.5" transform="matrix(-0.656524 0.754305 0.754305 0.656524 1542 -3)" stroke="black" stroke-width="15"/>
<line y1="-7.5" x2="87" y2="-7.5" transform="matrix(-0.656524 0.754305 0.754305 0.656524 1484 -3)" stroke="black" stroke-width="15"/>
<line y1="-7.5" x2="87" y2="-7.5" transform="matrix(-0.656524 0.754305 0.754305 0.656524 1426 -3)" stroke="black" stroke-width="15"/>
<line y1="-7.5" x2="87" y2="-7.5" transform="matrix(-0.656524 0.754305 0.754305 0.656524 1368 -3)" stroke="black" stroke-width="15"/>
<line y1="-7.5" x2="87" y2="-7.5" transform="matrix(-0.656524 0.754305 0.754305 0.656524 1302 -3)" stroke="black" stroke-width="15"/>
<line y1="-7.5" x2="87" y2="-7.5" transform="matrix(-0.656524 0.754305 0.754305 0.656524 1234 -3)" stroke="black" stroke-width="15"/>
<line y1="-7.5" x2="87" y2="-7.5" transform="matrix(-0.656524 0.754305 0.754305 0.656524 730 -3)" stroke="black" stroke-width="15"/>
<line y1="-7.5" x2="87" y2="-7.5" transform="matrix(-0.656524 0.754305 0.754305 0.656524 672 -3)" stroke="black" stroke-width="15"/>
<line y1="-7.5" x2="87" y2="-7.5" transform="matrix(-0.656524 0.754305 0.754305 0.656524 614 -3)" stroke="black" stroke-width="15"/>
<line y1="-7.5" x2="87" y2="-7.5" transform="matrix(-0.656524 0.754305 0.754305 0.656524 556 -3)" stroke="black" stroke-width="15"/>
<line y1="-7.5" x2="87" y2="-7.5" transform="matrix(-0.656524 0.754305 0.754305 0.656524 498 -3)" stroke="black" stroke-width="15"/>
<line y1="-7.5" x2="87" y2="-7.5" transform="matrix(-0.656524 0.754305 0.754305 0.656524 440 -3)" stroke="black" stroke-width="15"/>
<line y1="-7.5" x2="87" y2="-7.5" transform="matrix(-0.656524 0.754305 0.754305 0.656524 382 -3)" stroke="black" stroke-width="15"/>
<line y1="-7.5" x2="87" y2="-7.5" transform="matrix(-0.656524 0.754305 0.754305 0.656524 324 -3)" stroke="black" stroke-width="15"/>
<line y1="-7.5" x2="87" y2="-7.5" transform="matrix(-0.656524 0.754305 0.754305 0.656524 266 -3)" stroke="black" stroke-width="15"/>
<line y1="-7.5" x2="87" y2="-7.5" transform="matrix(-0.656524 0.754305 0.754305 0.656524 208 -3)" stroke="black" stroke-width="15"/>
<line y1="-7.5" x2="87" y2="-7.5" transform="matrix(-0.656524 0.754305 0.754305 0.656524 150 -3)" stroke="black" stroke-width="15"/>
<line y1="-7.5" x2="87" y2="-7.5" transform="matrix(-0.656524 0.754305 0.754305 0.656524 92 -3)" stroke="black" stroke-width="15"/>
<line y1="-7.5" x2="87" y2="-7.5" transform="matrix(-0.656524 0.754305 0.754305 0.656524 34 -3)" stroke="black" stroke-width="15"/>
<path d="M770.452 13.966V28.156C770.452 30.114 770.826 31.588 771.574 32.578C772.322 33.568 773.598 34.063 775.402 34.063C777.206 34.063 778.482 33.568 779.23 32.578C779.978 31.588 780.352 30.114 780.352 28.156V13.966H784.015V27.562C784.015 29.256 783.861 30.719 783.553 31.951C783.245 33.183 782.75 34.206 782.068 35.02C781.386 35.812 780.495 36.406 779.395 36.802C778.317 37.198 776.986 37.396 775.402 37.396C773.818 37.396 772.476 37.198 771.376 36.802C770.298 36.406 769.418 35.812 768.736 35.02C768.054 34.206 767.559 33.183 767.251 31.951C766.943 30.719 766.789 29.256 766.789 27.562V13.966H770.452ZM795.748 24.262L793.207 19.378H793.108V37H789.544V13.966H793.702L801.226 26.704L803.767 31.588H803.866V13.966H807.43V37H803.272L795.748 24.262ZM813.102 13.966H821.253C822.727 13.966 824.058 14.208 825.246 14.692C826.456 15.176 827.479 15.902 828.315 16.87C829.173 17.816 829.833 19.015 830.295 20.467C830.757 21.897 830.988 23.569 830.988 25.483C830.988 27.397 830.757 29.08 830.295 30.532C829.833 31.962 829.173 33.161 828.315 34.129C827.479 35.075 826.456 35.79 825.246 36.274C824.058 36.758 822.727 37 821.253 37H813.102V13.966ZM821.253 33.7C822.969 33.7 824.355 33.161 825.411 32.083C826.467 31.005 826.995 29.421 826.995 27.331V23.635C826.995 21.545 826.467 19.961 825.411 18.883C824.355 17.805 822.969 17.266 821.253 17.266H816.831V33.7H821.253ZM835.628 37V13.966H850.379V17.266H839.357V23.668H849.356V26.968H839.357V33.7H850.379V37H835.628ZM858.919 37H855.19V13.966H865.123C867.191 13.966 868.819 14.593 870.007 15.847C871.195 17.079 871.789 18.762 871.789 20.896C871.789 22.546 871.404 23.921 870.634 25.021C869.886 26.099 868.775 26.858 867.301 27.298L872.284 37H868.126L863.506 27.694H858.919V37ZM864.859 24.559C865.805 24.559 866.542 24.317 867.07 23.833C867.598 23.327 867.862 22.612 867.862 21.688V20.104C867.862 19.18 867.598 18.476 867.07 17.992C866.542 17.486 865.805 17.233 864.859 17.233H858.919V24.559H864.859ZM893.258 37.396C890.244 37.396 887.879 36.384 886.163 34.36C884.447 32.314 883.589 29.355 883.589 25.483C883.589 23.547 883.809 21.842 884.249 20.368C884.689 18.894 885.327 17.651 886.163 16.639C886.999 15.627 888.011 14.868 889.199 14.362C890.409 13.834 891.762 13.57 893.258 13.57C895.26 13.57 896.932 14.01 898.274 14.89C899.638 15.77 900.705 17.068 901.475 18.784L898.34 20.5C897.944 19.4 897.328 18.531 896.492 17.893C895.678 17.233 894.6 16.903 893.258 16.903C891.476 16.903 890.079 17.508 889.067 18.718C888.055 19.928 887.549 21.6 887.549 23.734V27.232C887.549 29.366 888.055 31.038 889.067 32.248C890.079 33.458 891.476 34.063 893.258 34.063C894.644 34.063 895.766 33.711 896.624 33.007C897.504 32.281 898.153 31.357 898.571 30.235L901.574 32.05C900.804 33.722 899.726 35.031 898.34 35.977C896.954 36.923 895.26 37.396 893.258 37.396ZM914.019 37.396C912.523 37.396 911.159 37.143 909.927 36.637C908.717 36.109 907.672 35.35 906.792 34.36C905.934 33.348 905.263 32.105 904.779 30.631C904.317 29.135 904.086 27.419 904.086 25.483C904.086 23.547 904.317 21.842 904.779 20.368C905.263 18.872 905.934 17.629 906.792 16.639C907.672 15.627 908.717 14.868 909.927 14.362C911.159 13.834 912.523 13.57 914.019 13.57C915.515 13.57 916.868 13.834 918.078 14.362C919.31 14.868 920.355 15.627 921.213 16.639C922.093 17.629 922.764 18.872 923.226 20.368C923.71 21.842 923.952 23.547 923.952 25.483C923.952 27.419 923.71 29.135 923.226 30.631C922.764 32.105 922.093 33.348 921.213 34.36C920.355 35.35 919.31 36.109 918.078 36.637C916.868 37.143 915.515 37.396 914.019 37.396ZM914.019 34.063C914.899 34.063 915.702 33.909 916.428 33.601C917.176 33.293 917.803 32.853 918.309 32.281C918.837 31.687 919.244 30.972 919.53 30.136C919.816 29.3 919.959 28.354 919.959 27.298V23.668C919.959 22.612 919.816 21.666 919.53 20.83C919.244 19.994 918.837 19.29 918.309 18.718C917.803 18.124 917.176 17.673 916.428 17.365C915.702 17.057 914.899 16.903 914.019 16.903C913.117 16.903 912.303 17.057 911.577 17.365C910.851 17.673 910.224 18.124 909.696 18.718C909.19 19.29 908.794 19.994 908.508 20.83C908.222 21.666 908.079 22.612 908.079 23.668V27.298C908.079 28.354 908.222 29.3 908.508 30.136C908.794 30.972 909.19 31.687 909.696 32.281C910.224 32.853 910.851 33.293 911.577 33.601C912.303 33.909 913.117 34.063 914.019 34.063ZM934.806 24.262L932.265 19.378H932.166V37H928.602V13.966H932.76L940.284 26.704L942.825 31.588H942.924V13.966H946.488V37H942.33L934.806 24.262ZM959.056 37.396C957.12 37.396 955.47 37.044 954.106 36.34C952.764 35.636 951.609 34.69 950.641 33.502L953.215 31.093C954.029 32.083 954.92 32.831 955.888 33.337C956.878 33.843 958 34.096 959.254 34.096C960.728 34.096 961.839 33.766 962.587 33.106C963.335 32.446 963.709 31.555 963.709 30.433C963.709 29.531 963.445 28.816 962.917 28.288C962.389 27.76 961.454 27.364 960.112 27.1L958.066 26.737C955.822 26.319 954.139 25.582 953.017 24.526C951.895 23.47 951.334 22.018 951.334 20.17C951.334 19.158 951.521 18.245 951.895 17.431C952.291 16.595 952.83 15.902 953.512 15.352C954.216 14.78 955.063 14.34 956.053 14.032C957.043 13.724 958.154 13.57 959.386 13.57C961.124 13.57 962.631 13.878 963.907 14.494C965.183 15.088 966.272 15.957 967.174 17.101L964.567 19.411C963.973 18.641 963.247 18.025 962.389 17.563C961.531 17.101 960.464 16.87 959.188 16.87C957.868 16.87 956.845 17.134 956.119 17.662C955.393 18.19 955.03 18.96 955.03 19.972C955.03 20.94 955.327 21.666 955.921 22.15C956.515 22.612 957.439 22.964 958.693 23.206L960.739 23.635C963.049 24.075 964.732 24.823 965.788 25.879C966.866 26.935 967.405 28.387 967.405 30.235C967.405 31.313 967.218 32.292 966.844 33.172C966.47 34.052 965.92 34.811 965.194 35.449C964.49 36.065 963.621 36.549 962.587 36.901C961.553 37.231 960.376 37.396 959.056 37.396ZM979.881 17.266V37H976.152V17.266H969.288V13.966H986.745V17.266H979.881ZM994.109 37H990.38V13.966H1000.31C1002.38 13.966 1004.01 14.593 1005.2 15.847C1006.38 17.079 1006.98 18.762 1006.98 20.896C1006.98 22.546 1006.59 23.921 1005.82 25.021C1005.08 26.099 1003.96 26.858 1002.49 27.298L1007.47 37H1003.32L998.696 27.694H994.109V37ZM1000.05 24.559C1000.99 24.559 1001.73 24.317 1002.26 23.833C1002.79 23.327 1003.05 22.612 1003.05 21.688V20.104C1003.05 19.18 1002.79 18.476 1002.26 17.992C1001.73 17.486 1000.99 17.233 1000.05 17.233H994.109V24.559H1000.05ZM1015.12 13.966V28.156C1015.12 30.114 1015.49 31.588 1016.24 32.578C1016.99 33.568 1018.26 34.063 1020.07 34.063C1021.87 34.063 1023.15 33.568 1023.89 32.578C1024.64 31.588 1025.02 30.114 1025.02 28.156V13.966H1028.68V27.562C1028.68 29.256 1028.53 30.719 1028.22 31.951C1027.91 33.183 1027.41 34.206 1026.73 35.02C1026.05 35.812 1025.16 36.406 1024.06 36.802C1022.98 37.198 1021.65 37.396 1020.07 37.396C1018.48 37.396 1017.14 37.198 1016.04 36.802C1014.96 36.406 1014.08 35.812 1013.4 35.02C1012.72 34.206 1012.22 33.183 1011.92 31.951C1011.61 30.719 1011.45 29.256 1011.45 27.562V13.966H1015.12ZM1042.85 37.396C1039.84 37.396 1037.48 36.384 1035.76 34.36C1034.04 32.314 1033.19 29.355 1033.19 25.483C1033.19 23.547 1033.41 21.842 1033.85 20.368C1034.29 18.894 1034.92 17.651 1035.76 16.639C1036.6 15.627 1037.61 14.868 1038.8 14.362C1040.01 13.834 1041.36 13.57 1042.85 13.57C1044.86 13.57 1046.53 14.01 1047.87 14.89C1049.23 15.77 1050.3 17.068 1051.07 18.784L1047.94 20.5C1047.54 19.4 1046.92 18.531 1046.09 17.893C1045.27 17.233 1044.2 16.903 1042.85 16.903C1041.07 16.903 1039.68 17.508 1038.66 18.718C1037.65 19.928 1037.15 21.6 1037.15 23.734V27.232C1037.15 29.366 1037.65 31.038 1038.66 32.248C1039.68 33.458 1041.07 34.063 1042.85 34.063C1044.24 34.063 1045.36 33.711 1046.22 33.007C1047.1 32.281 1047.75 31.357 1048.17 30.235L1051.17 32.05C1050.4 33.722 1049.32 35.031 1047.94 35.977C1046.55 36.923 1044.86 37.396 1042.85 37.396ZM1063.67 17.266V37H1059.94V17.266H1053.08V13.966H1070.53V17.266H1063.67ZM1072.99 37V33.964H1076.12V17.002H1072.99V13.966H1083.02V17.002H1079.85V33.964H1083.02V37H1072.99ZM1096.61 37.396C1095.12 37.396 1093.75 37.143 1092.52 36.637C1091.31 36.109 1090.27 35.35 1089.39 34.36C1088.53 33.348 1087.86 32.105 1087.37 30.631C1086.91 29.135 1086.68 27.419 1086.68 25.483C1086.68 23.547 1086.91 21.842 1087.37 20.368C1087.86 18.872 1088.53 17.629 1089.39 16.639C1090.27 15.627 1091.31 14.868 1092.52 14.362C1093.75 13.834 1095.12 13.57 1096.61 13.57C1098.11 13.57 1099.46 13.834 1100.67 14.362C1101.91 14.868 1102.95 15.627 1103.81 16.639C1104.69 17.629 1105.36 18.872 1105.82 20.368C1106.31 21.842 1106.55 23.547 1106.55 25.483C1106.55 27.419 1106.31 29.135 1105.82 30.631C1105.36 32.105 1104.69 33.348 1103.81 34.36C1102.95 35.35 1101.91 36.109 1100.67 36.637C1099.46 37.143 1098.11 37.396 1096.61 37.396ZM1096.61 34.063C1097.49 34.063 1098.3 33.909 1099.02 33.601C1099.77 33.293 1100.4 32.853 1100.9 32.281C1101.43 31.687 1101.84 30.972 1102.13 30.136C1102.41 29.3 1102.55 28.354 1102.55 27.298V23.668C1102.55 22.612 1102.41 21.666 1102.13 20.83C1101.84 19.994 1101.43 19.29 1100.9 18.718C1100.4 18.124 1099.77 17.673 1099.02 17.365C1098.3 17.057 1097.49 16.903 1096.61 16.903C1095.71 16.903 1094.9 17.057 1094.17 17.365C1093.45 17.673 1092.82 18.124 1092.29 18.718C1091.79 19.29 1091.39 19.994 1091.1 20.83C1090.82 21.666 1090.67 22.612 1090.67 23.668V27.298C1090.67 28.354 1090.82 29.3 1091.1 30.136C1091.39 30.972 1091.79 31.687 1092.29 32.281C1092.82 32.853 1093.45 33.293 1094.17 33.601C1094.9 33.909 1095.71 34.063 1096.61 34.063ZM1117.4 24.262L1114.86 19.378H1114.76V37H1111.2V13.966H1115.36L1122.88 26.704L1125.42 31.588H1125.52V13.966H1129.08V37H1124.93L1117.4 24.262Z" fill="black"/>
</g>
<path d="M1920 1H0V-1H1920V1ZM0 49H1920V51H0V49Z" fill="black" mask="url(#path-1-inside-1_12_2)"/>
<defs>
<clipPath id="clip0_12_2">
<path d="M1920 0H0V50H1920V0Z" fill="white"/>
</clipPath>
</defs>
</svg>
